<?xml version="1.0" encoding="UTF-8" standalone="no"?>
<svg
   xmlns:dc="http://purl.org/dc/elements/1.1/"
   xmlns:cc="http://creativecommons.org/ns#"
   xmlns:rdf="http://www.w3.org/1999/02/22-rdf-syntax-ns#"
   xmlns:svg="http://www.w3.org/2000/svg"
   xmlns="http://www.w3.org/2000/svg"
   xmlns:sodipodi="http://sodipodi.sourceforge.net/DTD/sodipodi-0.dtd"
   xmlns:inkscape="http://www.inkscape.org/namespaces/inkscape"
   inkscape:version="1.0 (4035a4fb49, 2020-05-01)"
   height="500"
   width="404.15799"
   sodipodi:docname="paper.svg"
   version="1.1"
   viewBox="0 0 404.15798 500"
   id="svg6908">
  <sodipodi:namedview
     inkscape:current-layer="svg6908"
     inkscape:window-maximized="1"
     inkscape:window-y="-8"
     inkscape:window-x="-8"
     inkscape:cy="232.79558"
     inkscape:cx="215.59693"
     inkscape:zoom="1"
     showgrid="false"
     id="namedview439"
     inkscape:window-height="745"
     inkscape:window-width="1366"
     inkscape:pageshadow="2"
     inkscape:pageopacity="0"
     guidetolerance="10"
     gridtolerance="10"
     objecttolerance="10"
     borderopacity="1"
     bordercolor="#666666"
     pagecolor="#ffffff" />
  <defs
     id="defs6910">
    <filter
       color-interpolation-filters="sRGB"
       x="-0.25"
       y="-0.25"
       width="1.5"
       height="1.5"
       id="filter3274">
      <feGaussianBlur
         in="SourceAlpha"
         stdDeviation="0.5"
         result="blur"
         id="feGaussianBlur3276" />
      <feColorMatrix
         result="bluralpha"
         type="matrix"
         values="1 0 0 0 0 0 1 0 0 0 0 0 1 0 0 0 0 0 0.5 0 "
         id="feColorMatrix3278" />
      <feOffset
         dy="2"
         dx="2"
         in="bluralpha"
         result="offsetBlur"
         id="feOffset3280" />
      <feMerge
         id="feMerge3282">
        <feMergeNode
           in="offsetBlur"
           id="feMergeNode3284" />
        <feMergeNode
           in="SourceGraphic"
           id="feMergeNode3286" />
      </feMerge>
    </filter>
    <clipPath
       clipPathUnits="userSpaceOnUse"
       id="clipPath3296">
      <rect
         fill="#fdfdfd"
         x="-4.4000001"
         y="-4.9492998"
         stroke="#000000"
         width="777.59998"
         height="962"
         ry="0"
         style="color:#000000"
         opacity="0.5"
         id="rect3298" />
    </clipPath>
  </defs>
  <g
     transform="matrix(0.51975052,0,0,0.51975052,2.2869023,2.5724012)"
     id="layer2">
    <path
       fill="#ffffff"
       stroke="#666666"
       filter="url(#filter3274)"
       clip-path="url(#clipPath3296)"
       d="m -0.84375,-0.15625 v 951.16 h 768.25 v -951.16 z m 53.156,100.41 c 7.9927,0 14.478,6.4761 14.5,14.469 v 0.0312 c 0,8.0081 -6.4919,14.5 -14.5,14.5 -8.0081,0 -14.5,-6.4919 -14.5,-14.5 0,-8.0081 6.4919,-14.5 14.5,-14.5 z m 0,360.66 c 7.9927,0 14.478,6.4761 14.5,14.469 v 0.0312 c 0,8.0081 -6.4919,14.5 -14.5,14.5 -8.0081,0 -14.5,-6.4919 -14.5,-14.5 0,-8.0081 6.4919,-14.5 14.5,-14.5 z m 0,371.34 c 7.9927,0 14.478,6.4761 14.5,14.469 v 0.0312 c 0,8.0081 -6.4919,14.5 -14.5,14.5 -8.0081,0 -14.5,-6.4919 -14.5,-14.5 0,-8.0081 6.4919,-14.5 14.5,-14.5 z"
       id="rect6916" />
  </g>
  <g
     transform="matrix(0.51975052,0,0,0.51975052,2.2869023,2.5724012)"
     id="layer4">
    <path
       fill="none"
       stroke-width="1px"
       stroke="#ff0000"
       d="m 650.78,0.10525 v 952.35"
       opacity="0.25"
       id="path3131" />
  </g>
  <g
     fill="none"
     transform="matrix(0.51975052,0,0,0.51975052,2.9528587,-174.0999)"
     stroke-width="0.75"
     stroke="#0011ff"
     id="layer1">
    <path
       d="m -1.2887,838.78 h 767.58"
       id="path3000" />
    <path
       d="m -1.2887,813.8 h 37.763 m 29.082,0 h 700.73"
       id="path3002" />
    <path
       d="m -1.2887,788.82 h 767.58"
       id="path3004" />
    <path
       d="m -1.2887,763.84 h 767.58"
       id="path3006" />
    <path
       d="m -1.2887,738.85 h 767.58"
       id="path3008" />
    <path
       d="m -1.2887,713.87 h 767.58"
       id="path3010" />
    <path
       d="m -1.2887,688.89 h 767.58"
       id="path3012" />
    <path
       d="m -1.2887,663.91 h 767.58"
       id="path3014" />
    <path
       d="m -1.2887,638.93 h 767.58"
       id="path3016" />
    <path
       d="m -1.2887,439.09 h 767.58"
       id="path7513" />
    <path
       d="m -1.2887,464.07 h 40.824 m 22.449,0 h 704.3"
       id="path7515" />
    <path
       d="m -1.2887,489.05 h 767.58"
       id="path7517" />
    <path
       d="m -1.2887,514.03 h 767.58"
       id="path7519" />
    <path
       d="m -1.2887,539.01 h 767.58"
       id="path7521" />
    <path
       d="m -1.2887,563.99 h 767.58"
       id="path7523" />
    <path
       d="m -1.2887,588.97 h 767.58"
       id="path7525" />
    <path
       d="m -1.2887,613.95 h 767.58"
       id="path7527" />
    <path
       d="m -1.2887,863.76 h 767.58"
       id="path3029" />
    <path
       d="m -1.2887,888.74 h 767.58"
       id="path3044" />
    <path
       d="m -1.2887,913.72 h 767.58"
       id="path3046" />
    <path
       d="m -1.2887,1013.6 h 767.58"
       id="path3078" />
    <path
       d="m -1.2887,1038.6 h 767.58"
       id="path3080" />
    <path
       d="m -1.2887,1063.6 h 767.58"
       id="path3082" />
    <path
       d="m -1.2887,1088.6 h 767.58"
       id="path3084" />
    <path
       d="m -1.2887,1113.6 h 767.58"
       id="path3086" />
    <path
       d="m -1.2887,1138.5 h 767.58"
       id="path3088" />
    <path
       d="m -1.2887,1163.5 h 767.58"
       id="path3090" />
    <path
       d="m -1.2887,1188.5 h 37.908 m 28.79,0 h 700.88"
       id="path3092" />
    <path
       d="m -1.2887,1213.5 h 767.58"
       id="path3094" />
    <path
       d="m -1.2887,1238.5 h 767.58"
       id="path3096" />
    <path
       d="m -1.2887,988.66 h 767.58"
       id="path3098" />
    <path
       d="m -1.2887,963.68 h 767.58"
       id="path3100" />
    <path
       d="m -1.2887,938.7 h 767.58"
       id="path3102" />
    <path
       d="m -1.2887,1263.4 h 767.58"
       id="path3106" />
  </g>
  <g
     transform="matrix(0.51975052,0,0,0.51975052,2.2869023,2.5724012)"
     id="layer3">
    <path
       fill="#0000ff"
       stroke-width="1px"
       stroke="#ff0000"
       d="m 110.95,0.10525 v 952.35"
       id="path3135" />
  </g>
  <metadata
     id="metadata436">
    <rdf:RDF>
      <cc:Work>
        <dc:format>image/svg+xml</dc:format>
        <dc:type
           rdf:resource="http://purl.org/dc/dcmitype/StillImage" />
        <cc:license
           rdf:resource="http://creativecommons.org/licenses/publicdomain/" />
        <dc:publisher>
          <cc:Agent
             rdf:about="http://openclipart.org/">
            <dc:title>Openclipart</dc:title>
          </cc:Agent>
        </dc:publisher>
        <dc:title>Lined Paper</dc:title>
        <dc:date>2013-06-14T04:56:27</dc:date>
        <dc:description>Multi-Layered Lined Loose Leaf Notebook Paper with 3 holes punched in it.</dc:description>
        <dc:source>https://openclipart.org/detail/179319/lined-paper-by-mrsmiles-179319</dc:source>
        <dc:creator>
          <cc:Agent>
            <dc:title>MrSmiles</dc:title>
          </cc:Agent>
        </dc:creator>
        <dc:subject>
          <rdf:Bag>
            <rdf:li>lined paper</rdf:li>
            <rdf:li>loose leaf paper</rdf:li>
            <rdf:li>paper</rdf:li>
            <rdf:li>template</rdf:li>
            <rdf:li>templates</rdf:li>
          </rdf:Bag>
        </dc:subject>
      </cc:Work>
      <cc:License
         rdf:about="http://creativecommons.org/licenses/publicdomain/">
        <cc:permits
           rdf:resource="http://creativecommons.org/ns#Reproduction" />
        <cc:permits
           rdf:resource="http://creativecommons.org/ns#Distribution" />
        <cc:permits
           rdf:resource="http://creativecommons.org/ns#DerivativeWorks" />
      </cc:License>
    </rdf:RDF>
  </metadata>
</svg>
