<?xml version="1.0" encoding="UTF-8" standalone="no"?>
<svg
   xmlns:dc="http://purl.org/dc/elements/1.1/"
   xmlns:cc="http://creativecommons.org/ns#"
   xmlns:rdf="http://www.w3.org/1999/02/22-rdf-syntax-ns#"
   xmlns:svg="http://www.w3.org/2000/svg"
   xmlns="http://www.w3.org/2000/svg"
   xmlns:sodipodi="http://sodipodi.sourceforge.net/DTD/sodipodi-0.dtd"
   xmlns:inkscape="http://www.inkscape.org/namespaces/inkscape"
   inkscape:version="1.0 (4035a4fb49, 2020-05-01)"
   height="330.22168"
   width="500"
   sodipodi:docname="rock.svg"
   id="svg14"
   xml:space="preserve"
   viewBox="0 0 499.99999 330.22167"
   version="1.1"
   enable-background="new 0 0 61.95 40.9"><metadata
   id="metadata20"><rdf:RDF><cc:Work
       rdf:about=""><dc:format>image/svg+xml</dc:format><dc:type
         rdf:resource="http://purl.org/dc/dcmitype/StillImage" /><dc:title></dc:title></cc:Work></rdf:RDF></metadata><defs
   id="defs18" /><sodipodi:namedview
   inkscape:current-layer="svg14"
   inkscape:window-maximized="1"
   inkscape:window-y="-8"
   inkscape:window-x="-8"
   inkscape:cy="165.11084"
   inkscape:cx="250"
   inkscape:zoom="1.6806892"
   showgrid="false"
   id="namedview16"
   inkscape:window-height="745"
   inkscape:window-width="1366"
   inkscape:pageshadow="2"
   inkscape:pageopacity="0"
   guidetolerance="10"
   gridtolerance="10"
   objecttolerance="10"
   borderopacity="1"
   bordercolor="#666666"
   pagecolor="#ffffff" />
<g
   transform="matrix(8.0738797,0,0,8.0738797,-0.17684656,0)"
   id="g12"
   fill-rule="evenodd"
   clip-rule="evenodd">
	<path
   id="path2"
   fill="#382f23"
   d="m 21.3,39.75 c 1.467,-1.6 3.217,-2.783 5.25,-3.55 1.2,-0.467 1.8,-1.367 1.8,-2.7 -0.533,-0.733 -1.25,-1.467 -2.15,-2.2 2.433,-0.467 4.083,-0.983 4.95,-1.55 L 34.7,27.5 34.75,28 c -0.267,0.8 -0.8,1.65 -1.6,2.55 -0.7,0.733 -1.051,1.267 -1.051,1.601 2.467,0.233 4.567,0.35 6.301,0.35 3,0 6.517,-1.417 10.55,-4.25 4.866,-3.434 6.684,-7.167 5.45,-11.2 l 2.3,1.15 c 0.2,-2.067 0.3,-3.383 0.3,-3.95 0,-0.633 -0.1,-1.367 -0.3,-2.2 -2.9,0 -5.217,-0.233 -6.95,-0.7 H 50 c 1.5,0.333 2.55,0.2 3.15,-0.4 0.399,-0.367 0.866,-1.15 1.399,-2.35 l 1.2,-0.75 c 0.1,-0.067 0.4,-0.3 0.9,-0.7 0.533,-0.5 0.833,-0.85 0.899,-1.05 0,-0.033 0.017,-0.067 0.05,-0.1 V 5.85 L 59,6.5 c 1,1.233 1.767,2.633 2.3,4.2 0.434,1.3 0.65,2.517 0.65,3.65 0,6.167 -2.45,11.15 -7.351,14.95 -3.966,3.101 -8.017,4.65 -12.149,4.65 L 42.15,34 c -9.5,2.333 -14.534,3.6 -15.101,3.8 -0.632,0.3 -2.549,0.95 -5.749,1.95 z m 25.3,-22.4 c 0.634,-0.5 1.733,-1 3.301,-1.5 L 50,18.9 c 0.033,2.567 -0.333,4.067 -1.1,4.5 -0.9,-0.5 -1.534,-0.95 -1.9,-1.351 -0.1,-0.2 -0.316,-0.633 -0.65,-1.3 -0.333,-0.667 -0.5,-1.033 -0.5,-1.1 0,-0.732 0.25,-1.499 0.75,-2.299 z M 35.2,14.55 35.05,13.8 35,13.55 c -0.333,-1.533 -0.517,-2.733 -0.55,-3.6 l 1.399,-0.1 c 0.034,0.033 0.067,0.066 0.101,0.1 1.8,1.733 2.783,4 2.95,6.8 0.233,4.167 0.449,6.55 0.649,7.15 -0.066,0.399 -0.184,0.483 -0.35,0.25 -0.367,-0.801 -0.834,-2.301 -1.4,-4.5 -0.399,-1.5 -1.266,-3.2 -2.599,-5.1 z m -3.4,5.5 c -0.566,2.3 -1.833,4.434 -3.8,6.4 -2.2,1.866 -3.683,3.267 -4.45,4.2 -0.267,-0.434 -0.566,-1.25 -0.9,-2.45 -0.2,-0.8 -0.583,-1.351 -1.15,-1.65 L 21.05,26.2 c 1.367,-0.167 4.833,-2.101 10.4,-5.8 z" />
	<path
   id="path4"
   fill="#79674f"
   d="M 50.95,3.6 50.8,3.65 38.3,4.75 c 0.367,0.2 1.217,0.4 2.55,0.6 1.667,0.267 3.551,0.4 5.65,0.4 3,0 4.5,-0.517 4.5,-1.55 0,-0.333 -0.017,-0.533 -0.05,-0.6 z m 4.8,4.25 c -1.866,0.566 -3.066,0.917 -3.6,1.05 -0.867,0.233 -1.834,0.35 -2.9,0.35 L 39.6,8.65 C 37.901,7.783 35.583,7.35 32.651,7.35 L 27.4,7.4 28.8,7.65 c 1.233,0.4 2.467,1.033 3.7,1.9 -0.934,1.3 -2,3.817 -3.2,7.55 -0.9,2.7 -2.233,4.483 -4,5.35 -2.133,1.066 -5.7,2.033 -10.7,2.899 C 10.533,26.049 7.783,26.4 6.35,26.4 6.083,26.4 5.367,26.133 4.2,25.599 2.833,24.966 1.9,24.383 1.4,23.849 L 1.2,24.15 c 1.4,-5.2 3.25,-9.601 5.55,-13.2 2.033,-3.2 4.167,-5.417 6.4,-6.65 0.3,-0.167 1.367,-0.2 3.2,-0.1 2.467,0.133 4.566,0.133 6.3,0 1,-0.1 2.983,-0.85 5.95,-2.25 C 31.3,0.65 34.65,0 38.65,0 c 1.666,0 4.899,0.6 9.699,1.8 4.801,1.167 7.733,2.083 8.801,2.75 l 0.149,0.6 c 0.167,0.267 0.267,0.5 0.3,0.7 V 6 c -0.033,0.033 -0.05,0.067 -0.05,0.1 -0.066,0.2 -0.366,0.55 -0.899,1.05 -0.5,0.4 -0.8,0.633 -0.9,0.7 z M 20.5,17.6 c 0.5,0 1.2,-0.117 2.1,-0.35 0.933,-0.2 1.667,-0.45 2.2,-0.75 l -6.2,1.05 z m 0.25,-7.05 c -0.133,-1.1 -0.2,-1.9 -0.2,-2.4 -0.433,0.233 -1.45,0.767 -3.05,1.6 -0.2,0.1 -0.3,0.2 -0.3,0.3 0,0.333 0.05,0.483 0.15,0.45 0.066,0 0.1,-0.017 0.1,-0.05 l 0.6,0.1 c 0.467,0.067 0.867,0.1 1.2,0.1 0.567,0 1.067,-0.033 1.5,-0.1 z m -6.5,7.4 c 2.633,0 3.95,-0.8 3.95,-2.4 0,-1 -0.1,-1.95 -0.3,-2.85 -2.867,1.1 -4.733,1.917 -5.6,2.45 -0.7,0.434 -1.05,0.883 -1.05,1.35 0,0.233 0.2,0.5 0.6,0.8 0.6,0.433 1.4,0.65 2.4,0.65 z m -8.45,-1 c 1.034,-0.1 1.784,-0.367 2.25,-0.8 l -2.55,-0.3 -0.25,0.7 c 0.067,0.2 0.25,0.333 0.55,0.4 z M 11.1,9.3 c -0.533,0.233 -0.8,0.5 -0.8,0.8 0,0.3 0.267,0.566 0.8,0.8 0.533,0.234 1.183,0.35 1.95,0.35 0.733,0 1.367,-0.117 1.9,-0.35 0.533,-0.233 0.8,-0.5 0.8,-0.8 0,-0.3 -0.267,-0.567 -0.8,-0.8 -0.534,-0.233 -1.167,-0.35 -1.9,-0.35 -0.767,0 -1.417,0.117 -1.95,0.35 z m 3.55,16.65 h 0.75 c 0.033,0.133 0.083,0.267 0.15,0.399 2.3,6.267 2.95,9.9 1.95,10.9 -0.7,0.733 -1.667,1.1 -2.9,1.1 -0.5,0 -1.267,-0.083 -2.3,-0.25 0.067,-0.166 0.017,-1.25 -0.15,-3.25 -0.133,-1.966 0.15,-3.899 0.85,-5.8 0.567,-1.466 1.117,-2.499 1.65,-3.099 z M 2,26.1 2.55,26.4 c 1.233,0.866 2.367,2.267 3.4,4.199 1.167,2.167 1.75,4.284 1.75,6.351 0,0.366 -0.017,0.55 -0.05,0.55 C 7.55,37.467 7.433,37.467 7.3,37.5 6.8,37.267 5.584,36.233 3.65,34.4 1.817,32.6 0.783,31.5 0.55,31.1 0.117,30.134 -0.05,29.35 0.05,28.75 0.317,27.85 0.533,26.917 0.7,25.95 Z" />
	<path
   id="path6"
   fill="#4e4332"
   d="M 57.15,4.55 C 57.783,4.95 58.4,5.6 59,6.5 L 57.6,5.85 C 57.567,5.65 57.467,5.416 57.3,5.15 Z M 39.6,8.65 c 0.4,0.233 0.834,0.667 1.301,1.3 h -0.65 c 0.033,0.8 0,2.917 -0.1,6.35 -0.034,1.967 0.017,3.317 0.149,4.05 0.033,0.167 0.066,0.3 0.101,0.4 V 20.7 c 0.1,-0.1 0.133,-0.184 0.1,-0.25 0.366,0.233 0.7,1.083 1,2.55 0.366,1.767 0.45,3.267 0.25,4.5 2,-0.233 3.316,-0.616 3.95,-1.15 0.899,-0.767 1.333,-2.199 1.3,-4.3 0.366,0.4 1,0.851 1.9,1.351 0.767,-0.434 1.133,-1.934 1.1,-4.5 l -0.1,-3.05 c -1.567,0.5 -2.667,1 -3.301,1.5 0.101,-0.7 0.517,-1.283 1.25,-1.75 0.7,-0.467 1.051,-1 1.051,-1.6 -0.733,-1.5 -1.217,-2.683 -1.45,-3.55 l 0.7,-0.1 1.35,-0.2 c 2.866,-0.8 4.55,-1.316 5.05,-1.55 -0.533,1.2 -1,1.983 -1.399,2.35 -0.601,0.6 -1.65,0.733 -3.15,0.4 h -0.25 c 1.733,0.467 4.05,0.7 6.95,0.7 0.2,0.833 0.3,1.567 0.3,2.2 0,0.567 -0.1,1.883 -0.3,3.95 l -2.3,-1.15 c 1.233,4.033 -0.584,7.767 -5.45,11.2 -4.033,2.833 -7.55,4.25 -10.55,4.25 -1.733,0 -3.834,-0.116 -6.301,-0.35 0,-0.334 0.351,-0.867 1.051,-1.601 0.8,-0.899 1.333,-1.75 1.6,-2.55 l -0.05,-0.5 -3.55,2.25 c -0.867,0.566 -2.517,1.083 -4.95,1.55 0.9,0.733 1.617,1.467 2.15,2.2 0,1.333 -0.6,2.233 -1.8,2.7 -2.033,0.767 -3.783,1.95 -5.25,3.55 l -3.5,1.15 c 0.267,-0.7 1.4,-3.101 3.4,-7.2 0.733,-1.533 1.1,-3 1.1,-4.4 0,-0.6 -0.267,-1.517 -0.8,-2.75 0.567,0.3 0.95,0.851 1.15,1.65 0.333,1.2 0.633,2.017 0.9,2.45 0.767,-0.934 2.25,-2.334 4.45,-4.2 1.967,-1.967 3.233,-4.101 3.8,-6.4 l 0.15,-0.15 c 0.233,-0.4 0.899,-1.133 2,-2.2 1,-1.133 1.416,-2.15 1.25,-3.05 v -0.1 c 1.333,1.9 2.2,3.6 2.6,5.1 0.566,2.2 1.033,3.7 1.4,4.5 0.166,0.233 0.283,0.149 0.35,-0.25 -0.2,-0.601 -0.416,-2.984 -0.649,-7.15 -0.167,-2.8 -1.15,-5.067 -2.95,-6.8 C 35.92,9.916 35.887,9.883 35.852,9.85 l -1.399,0.1 c 0.033,0.867 0.217,2.066 0.55,3.6 -1.3,-2.233 -2.134,-3.566 -2.5,-4 -1.233,-0.867 -2.467,-1.5 -3.7,-1.9 L 27.4,7.4 32.65,7.35 c 2.933,0 5.25,0.433 6.95,1.3 z M 7.9,28.05 c 0.533,0 1.117,-0.267 1.75,-0.8 0.733,-0.566 1.267,-0.9 1.6,-1 l 1.25,-0.2 V 26.1 C 12.433,26.667 11.833,30.317 10.7,37.05 10.2,36.717 9.583,35.5 8.85,33.401 8.05,31.1 7.733,29.316 7.9,28.05 Z" />
	<path
   id="path8"
   fill="#897559"
   d="m 55.75,7.85 -1.2,0.75 c -0.5,0.233 -2.184,0.75 -5.05,1.55 l -1.35,0.2 c -1.301,0.133 -2.2,0.2 -2.7,0.2 C 44.683,10.517 43.167,10.317 40.9,9.95 40.434,9.317 40,8.883 39.6,8.65 l 9.65,0.6 c 1.066,0 2.033,-0.117 2.9,-0.35 0.534,-0.133 1.734,-0.483 3.6,-1.05 z M 50.95,3.6 C 50.983,3.667 51,3.867 51,4.2 51,5.233 49.5,5.75 46.5,5.75 44.4,5.75 42.517,5.617 40.85,5.35 39.517,5.15 38.667,4.95 38.3,4.75 L 50.8,3.65 Z M 2.55,26.4 2,26.1 0.8,25.5 1.2,24.15 1.4,23.849 c 0.5,0.534 1.434,1.117 2.8,1.75 1.167,0.535 1.883,0.801 2.15,0.801 1.433,0 4.183,-0.351 8.25,-1.051 5,-0.866 8.566,-1.833 10.7,-2.899 1.767,-0.867 3.1,-2.65 4,-5.35 1.2,-3.733 2.267,-6.25 3.2,-7.55 0.366,0.434 1.2,1.767 2.5,4 l 0.05,0.25 0.15,0.85 c 0.166,0.9 -0.25,1.917 -1.25,3.05 -1.101,1.066 -1.767,1.8 -2,2.2 l -0.15,0.15 -0.35,0.35 c -5.567,3.7 -9.034,5.633 -10.4,5.8 -0.3,0 -1.183,-0.017 -2.65,-0.05 -0.533,-0.034 -1.017,-0.051 -1.45,-0.051 -0.667,-0.066 -1.184,-0.116 -1.55,-0.149 h -0.75 c -0.566,0 -1.283,0.05 -2.15,0.149 v -0.05 l -1.25,0.2 c -0.333,0.1 -0.867,0.434 -1.6,1 -0.633,0.533 -1.217,0.8 -1.75,0.8 C 7.033,28.017 6,27.767 4.8,27.3 3.633,26.8 2.883,26.5 2.55,26.4 Z m 18.2,-15.85 c -0.433,0.067 -0.933,0.1 -1.5,0.1 -0.333,0 -0.733,-0.033 -1.2,-0.1 l -0.6,-0.1 c 0,0.033 -0.034,0.05 -0.1,0.05 -0.1,0.033 -0.15,-0.117 -0.15,-0.45 0,-0.1 0.1,-0.2 0.3,-0.3 1.6,-0.833 2.617,-1.367 3.05,-1.6 0,0.5 0.067,1.3 0.2,2.4 z M 20.5,17.6 18.6,17.55 24.8,16.5 c -0.533,0.3 -1.267,0.55 -2.2,0.75 -0.9,0.233 -1.6,0.35 -2.1,0.35 z M 11.1,9.3 c 0.533,-0.233 1.183,-0.35 1.95,-0.35 0.733,0 1.367,0.117 1.9,0.35 0.533,0.233 0.8,0.5 0.8,0.8 0,0.3 -0.267,0.566 -0.8,0.8 -0.534,0.233 -1.167,0.35 -1.9,0.35 -0.767,0 -1.417,-0.117 -1.95,-0.35 -0.533,-0.233 -0.8,-0.5 -0.8,-0.8 0,-0.3 0.267,-0.567 0.8,-0.8 z M 5.8,16.95 C 5.5,16.883 5.317,16.75 5.25,16.55 l 0.25,-0.7 2.55,0.3 c -0.467,0.433 -1.217,0.7 -2.25,0.8 z m 8.45,1 c -1,0 -1.8,-0.217 -2.4,-0.65 -0.4,-0.3 -0.6,-0.566 -0.6,-0.8 0,-0.467 0.35,-0.917 1.05,-1.35 0.867,-0.533 2.733,-1.35 5.6,-2.45 0.2,0.9 0.3,1.85 0.3,2.85 0,1.6 -1.317,2.4 -3.95,2.4 z" />
	<path
   id="path10"
   fill="#6a5b45"
   d="m 48.15,10.35 -0.7,0.1 c 0.233,0.867 0.717,2.05 1.45,3.55 0,0.6 -0.351,1.133 -1.051,1.6 -0.733,0.467 -1.149,1.05 -1.25,1.75 -0.5,0.8 -0.75,1.566 -0.75,2.3 0,0.067 0.167,0.434 0.5,1.1 0.334,0.667 0.551,1.1 0.65,1.3 0.033,2.101 -0.4,3.533 -1.3,4.3 -0.634,0.534 -1.95,0.917 -3.95,1.15 0.2,-1.233 0.116,-2.733 -0.25,-4.5 -0.3,-1.467 -0.634,-2.317 -1,-2.55 0.033,0.066 0,0.15 -0.1,0.25 v 0.05 c -0.034,-0.1 -0.067,-0.233 -0.101,-0.4 -0.133,-0.733 -0.184,-2.083 -0.149,-4.05 0.1,-3.433 0.133,-5.55 0.1,-6.35 h 0.65 c 2.267,0.367 3.783,0.566 4.55,0.6 0.501,0 1.401,-0.067 2.701,-0.2 z M 35.2,14.65 35.05,13.8 35.2,14.55 Z M 21.05,26.2 21.5,26.55 c 0.533,1.233 0.8,2.15 0.8,2.75 0,1.4 -0.367,2.867 -1.1,4.4 -2,4.1 -3.133,6.5 -3.4,7.2 -4.767,0 -8.833,-0.95 -12.2,-2.851 -3.367,-1.899 -5.05,-4.217 -5.05,-6.95 0.233,0.4 1.267,1.5 3.1,3.301 1.934,1.833 3.15,2.866 3.65,3.1 0.133,-0.033 0.25,-0.033 0.35,0 0.033,0 0.05,-0.184 0.05,-0.55 0,-2.066 -0.583,-4.184 -1.75,-6.351 -1.034,-1.933 -2.167,-3.333 -3.4,-4.199 0.333,0.1 1.083,0.4 2.25,0.9 1.2,0.467 2.233,0.717 3.1,0.75 -0.167,1.266 0.15,3.05 0.95,5.35 0.733,2.1 1.35,3.316 1.85,3.649 1.133,-6.733 1.733,-10.383 1.8,-10.95 0.867,-0.1 1.583,-0.149 2.15,-0.149 -0.533,0.6 -1.083,1.633 -1.65,3.1 -0.7,1.9 -0.983,3.834 -0.85,5.8 0.167,2 0.217,3.084 0.15,3.25 1.034,0.167 1.8,0.25 2.3,0.25 1.233,0 2.2,-0.366 2.9,-1.1 1,-1 0.35,-4.634 -1.95,-10.9 -0.066,-0.133 -0.117,-0.267 -0.15,-0.399 0.367,0.033 0.883,0.083 1.55,0.149 0.433,0 0.917,0.017 1.45,0.051 1.467,0.033 2.35,0.049 2.65,0.049 z M 0.8,25.5 2,26.1 0.7,25.95 Z" />
</g>
</svg>
