<?xml version="1.0" encoding="UTF-8" standalone="no"?>
<svg
   xmlns:dc="http://purl.org/dc/elements/1.1/"
   xmlns:cc="http://creativecommons.org/ns#"
   xmlns:rdf="http://www.w3.org/1999/02/22-rdf-syntax-ns#"
   xmlns:svg="http://www.w3.org/2000/svg"
   xmlns="http://www.w3.org/2000/svg"
   xmlns:xlink="http://www.w3.org/1999/xlink"
   xmlns:sodipodi="http://sodipodi.sourceforge.net/DTD/sodipodi-0.dtd"
   xmlns:inkscape="http://www.inkscape.org/namespaces/inkscape"
   inkscape:version="1.0 (4035a4fb49, 2020-05-01)"
   height="500"
   width="500.89279"
   sodipodi:docname="scissors.svg"
   version="1.1"
   viewBox="0 0 500.8928 500.00001"
   id="svg2">
  <sodipodi:namedview
     inkscape:current-layer="svg2"
     inkscape:window-maximized="1"
     inkscape:window-y="-8"
     inkscape:window-x="-8"
     inkscape:cy="229.19799"
     inkscape:cx="212.39053"
     inkscape:zoom="1"
     showgrid="false"
     id="namedview583"
     inkscape:window-height="745"
     inkscape:window-width="1366"
     inkscape:pageshadow="2"
     inkscape:pageopacity="0"
     guidetolerance="10"
     gridtolerance="10"
     objecttolerance="10"
     borderopacity="1"
     bordercolor="#666666"
     pagecolor="#ffffff" />
  <defs
     id="defs4">
    <filter
       color-interpolation-filters="sRGB"
       id="filter3715">
      <feGaussianBlur
         stdDeviation="0.80244924"
         id="feGaussianBlur3717" />
    </filter>
    <filter
       color-interpolation-filters="sRGB"
       id="filter3780">
      <feGaussianBlur
         stdDeviation="1.9692511"
         id="feGaussianBlur3782" />
    </filter>
    <filter
       color-interpolation-filters="sRGB"
       x="-0.10179"
       y="-0.33853"
       width="1.2036"
       height="1.6770999"
       id="filter3792">
      <feGaussianBlur
         stdDeviation="5.129414"
         id="feGaussianBlur3794" />
    </filter>
    <filter
       color-interpolation-filters="sRGB"
       x="-0.10179"
       y="-0.33853"
       width="1.2036"
       height="1.6770999"
       id="filter3792-7">
      <feGaussianBlur
         stdDeviation="5.129414"
         id="feGaussianBlur3794-9" />
    </filter>
    <radialGradient
       r="15.533"
       gradientTransform="matrix(1.6162,0.74603,-0.81019,1.4718,207.6,-348.64)"
       cx="206.55"
       cy="413.34"
       gradientUnits="userSpaceOnUse"
       id="radialGradient3850">
      <stop
         offset="0"
         id="stop3705" />
      <stop
         offset="1"
         stop-opacity="0"
         id="stop3707" />
    </radialGradient>
    <radialGradient
       r="71.375"
       gradientTransform="matrix(0.81174,-0.012789,0.0075079,0.47655,180.65,169.21)"
       cx="382.73999"
       cy="698.87"
       gradientUnits="userSpaceOnUse"
       id="radialGradient3852">
      <stop
         offset="0"
         stop-color="#999"
         id="stop3752" />
      <stop
         offset="1"
         stop-opacity=".72727"
         stop-color="#999"
         id="stop3754" />
    </radialGradient>
    <radialGradient
       r="18.391001"
       gradientTransform="matrix(0.70653,-0.70769,0.69867,0.69752,-320.37,274.84)"
       cx="305.92999"
       cy="435.98999"
       gradientUnits="userSpaceOnUse"
       id="radialGradient3866">
      <stop
         offset="0"
         stop-opacity="0"
         id="stop3683" />
      <stop
         offset="1"
         stop-opacity=".77922"
         id="stop3685" />
    </radialGradient>
    <linearGradient
       x1="193.13"
       y1="494.91"
       gradientTransform="matrix(0.70653,-0.70769,0.70769,0.70653,-367.61,221.69)"
       x2="194.53999"
       gradientUnits="userSpaceOnUse"
       y2="501.72"
       id="linearGradient3869">
      <stop
         offset="0"
         stop-color="#ccc"
         id="stop3659" />
      <stop
         offset="1"
         stop-opacity="0"
         stop-color="#ccc"
         id="stop3661" />
    </linearGradient>
    <linearGradient
       x1="-135.5"
       y1="153.75"
       x2="-135.07001"
       gradientUnits="userSpaceOnUse"
       y2="119.84"
       id="linearGradient3895">
      <stop
         offset="0"
         id="stop3891" />
      <stop
         offset="1"
         stop-opacity="0"
         id="stop3893" />
    </linearGradient>
    <radialGradient
       r="71.375"
       cy="698.87"
       cx="382.73999"
       gradientTransform="matrix(0.81174,-0.012789,0.0075079,0.47655,180.65,169.21)"
       gradientUnits="userSpaceOnUse"
       id="radialGradient585"
       xlink:href="#radialGradient3852"
       inkscape:collect="always" />
    <radialGradient
       r="71.375"
       cy="698.87"
       cx="382.73999"
       gradientTransform="matrix(0.81174,-0.012789,0.0075079,0.47655,180.65,169.21)"
       gradientUnits="userSpaceOnUse"
       id="radialGradient587"
       xlink:href="#radialGradient3852"
       inkscape:collect="always" />
  </defs>
  <g
     transform="matrix(1.1332561,0,0,1.1332561,-86.988128,-52.45276)"
     id="layer1">
    <path
       fill="#b3b3b3"
       stroke-width="2.1172"
       stroke="#000000"
       fill-rule="evenodd"
       d="m 202.26,403.18 76.943,-77.07 -13.883,-13.861 c -26.221,18.815 -55.024,30.152 -78.304,22.942 l -76.321,76.346 c -24.287,23.13 -28.69,57.67 -32.877,74.89 l 124.44,-83.252 6e-5,6e-5 5e-5,5e-5 1e-5,10e-6 z"
       stroke-linejoin="round"
       id="path3649" />
    <path
       transform="matrix(0.70653,-0.70769,0.70769,0.70653,-367.61,221.69)"
       fill="#1a1c1a"
       d="m 315.86,531.63 c 6.9444,-12.2 11.905,-16.523 34.237,-27.604 l -0.48606,-4.2106 c -26.112,10.975 -29.638,15.664 -40.426,31.814 h 6.6746 z"
       filter="url(#filter3715)"
       id="path3713" />
    <path
       fill="#b3b3b3"
       stroke-width="2.1172"
       stroke="#000000"
       fill-rule="evenodd"
       d="m 160.87,361.86 76.943,-77.07 13.883,13.861 c -18.772,26.252 -30.062,55.073 -22.813,78.341 l -76.221,76.446 c -23.09,24.321 -57.631,28.78 -74.84,32.995 l 83.047,-124.57 -5e-5,-5e-5 -4e-5,-5e-5 -3e-5,-2e-5 z"
       stroke-linejoin="round"
       id="path3653" />
    <path
       style="fill:url(#linearGradient3869)"
       fill-rule="evenodd"
       fill="url(#linearGradient3869)"
       d="m 161.12,382.42 -67.176,99.01 -13.288,2.66 80.274,-121.06 c 5.1435,4.7516 4.9202,12.657 0.19746,19.39 z"
       id="path3655" />
    <path
       style="fill:url(#radialGradient3866)"
       fill-rule="evenodd"
       fill="url(#radialGradient3866)"
       stroke="#000000"
       d="m 187.91,349.96 c -6.9792,6.9907 -7.0548,18.259 -0.1561,25.147 6.8987,6.8873 18.167,6.7932 25.146,-0.19745 6.9792,-6.9906 7.0327,-18.237 0.13403,-25.125 -6.8987,-6.8873 -18.145,-6.8153 -25.124,0.17533 z m 3.4058,3.4001 c 5.0129,-5.0212 13.143,-5.0278 18.164,-0.0149 5.0212,5.0129 5.0278,13.143 0.0149,18.164 -5.0129,5.0212 -13.143,5.0278 -18.164,0.0149 -5.0212,-5.0129 -5.0278,-13.143 -0.0149,-18.164 z"
       id="path3665" />
    <path
       fill="#cccccc"
       stroke-width="2"
       stroke="#000000"
       transform="matrix(0.63035,-0.63139,0.64299,0.64194,-235.24,272)"
       fill-rule="evenodd"
       d="m 287.59,409.64 a 14.356,14.356 0 1 1 -28.712,0 14.356,14.356 0 1 1 28.712,0 z"
       stroke-linejoin="round"
       id="path3691" />
    <path
       style="fill:url(#radialGradient3850)"
       fill-rule="evenodd"
       transform="matrix(0.57525,-0.57619,0.62922,0.62819,-188.25,224.12)"
       fill="url(#radialGradient3850)"
       d="m 232.99,419.53 a 15.533,14.356 0 1 1 -31.065,0 15.533,14.356 0 1 1 31.065,0 z"
       id="path3693" />
    <path
       fill="#ff0000"
       stroke-width="1.2473"
       stroke="#000000"
       fill-rule="evenodd"
       d="m 295.64,98.821 c -34.97,35.027 -41.643,73.878 -22.675,104.01 18.969,30.13 -24.977,58.793 -42.006,80.866 l 22.779,22.741 95.513,-95.671 1.9682,1.965 19.297,-19.329 -1.9682,-1.965 9.9134,-9.9298 c 34.97,-35.03 43.6,-83.124 21.15,-105.53 -22.45,-22.415 -69,-12.186 -103.97,22.841 z m 5.1189,17.607 c 25.387,-25.428 58.777,-33.256 74.585,-17.474 13.607,13.585 9.7391,40.251 -7.7922,63.624 -20.729,22.403 -39.314,35.125 -55.301,36.108 -11.566,1.6734 -21.896,-0.70855 -28.843,-7.644 -15.808,-15.782 -8.0353,-49.186 17.351,-74.614 z"
       id="path2818" />
    <path
       style="fill:url(#radialGradient585)"
       fill="url(#radialGradient3852)"
       filter="url(#filter3780)"
       transform="matrix(0.70653,-0.70769,0.70769,0.70653,-373.47,144.16)"
       fill-rule="evenodd"
       d="m 496.58,453.44 c -39.422,0 -71.375,19.836 -71.375,44.344 0,10.77 6.1412,20.66 16.406,28.344 13.156,11.651 37.444,16.209 70.906,14.938 31.737,-4.5057 55.438,-22.185 55.438,-43.281 0,-24.508 -31.953,-44.344 -71.375,-44.344 z m 0,3.875 c 35.932,0 65.062,18.1 65.062,40.438 0,19.228 -21.604,35.331 -50.531,39.438 -30.5,1.1589 -52.634,-3.0054 -64.625,-13.625 -9.3562,-7.0031 -14.969,-15.996 -14.969,-25.812 0,-22.338 29.131,-40.438 65.062,-40.438 z"
       opacity="0.87736"
       id="path3747" />
    <path
       stroke-width="1px"
       stroke="#000000"
       filter="url(#filter3792)"
       transform="matrix(0.70653,-0.70769,0.70769,0.70653,-373.47,144.16)"
       d="m 433.43,481.05 c 39.397,-56.72 120.24,-25.83 120.91,-2.8283 -9.9834,-17.322 -78.644,-44.607 -120.91,2.8283 z"
       opacity="0.6195"
       id="path3758" />
    <path
       fill="#ff0000"
       stroke-width="1.2473"
       stroke="#000000"
       fill-rule="evenodd"
       d="m 466.31,268.47 c -34.97,35.027 -73.809,41.764 -103.97,22.845 -30.161,-18.919 -58.751,25.074 -80.797,42.139 l -22.779,-22.741 95.513,-95.671 -1.9682,-1.965 19.297,-19.329 1.9682,1.965 9.9134,-9.9297 c 34.97,-35.027 83.049,-43.732 105.5,-21.322 22.447,22.41 12.295,68.98 -22.675,104.01 z m -17.616,-5.09 c 25.387,-25.428 33.159,-58.832 17.351,-74.614 -13.607,-13.585 -40.267,-9.6729 -63.611,7.8968 -22.369,20.765 -35.061,39.372 -36.017,55.361 -1.6544,11.569 0.74456,21.895 7.6914,28.83 15.808,15.782 49.199,7.9545 74.585,-17.474 z"
       id="path3803" />
    <path
       style="fill:url(#radialGradient587)"
       fill="url(#radialGradient3852)"
       filter="url(#filter3780)"
       transform="matrix(0.70653,-0.70769,-0.70769,-0.70653,422.07,937.65)"
       fill-rule="evenodd"
       d="m 496.58,453.44 c -39.422,0 -71.375,19.836 -71.375,44.344 0,10.77 6.1412,20.66 16.406,28.344 13.156,11.651 37.444,16.209 70.906,14.938 31.737,-4.5057 55.438,-22.185 55.438,-43.281 0,-24.508 -31.953,-44.344 -71.375,-44.344 z m 0,3.875 c 35.932,0 65.062,18.1 65.062,40.438 0,19.228 -21.604,35.331 -50.531,39.438 -30.5,1.1589 -52.634,-3.0054 -64.625,-13.625 -9.3562,-7.0031 -14.969,-15.996 -14.969,-25.812 0,-22.338 29.131,-40.438 65.062,-40.438 z"
       opacity="0.87736"
       id="path3805" />
    <path
       stroke-width="1px"
       stroke="#000000"
       filter="url(#filter3792)"
       transform="matrix(-0.70653,0.70769,0.70769,0.70653,419.74,-467.32)"
       d="m 433.43,481.05 c 35.067,-56.641 118.45,-25.921 120.91,-2.8283 -9.9834,-17.322 -78.644,-44.607 -120.91,2.8283 z"
       opacity="0.6195"
       id="path3807" />
    <path
       stroke-width="1px"
       stroke="#000000"
       filter="url(#filter3792-7)"
       transform="matrix(-0.70653,0.70769,0.70769,0.70653,340.3,-377.36)"
       d="m 454.42,496.8 c -5.9476,2.6974 4.9318,-30.02 17.411,-33.659 35.715,-10.414 73.615,-7.9301 71.607,-5.056 0.78283,6.3941 -41.903,-2.4008 -70.199,8.1185 -12.693,4.7186 -20.12,31.364 -18.819,30.596 z"
       id="path3807-3" />
    <path
       style="fill:url(#linearGradient3895)"
       fill="url(#linearGradient3895)"
       transform="matrix(0.88081,-0.85672,0.23824,0.24493,385.69,102.22)"
       fill-rule="evenodd"
       d="m -182.43,133.23 89.039,-5.368 c 5.3026,6.3926 9.6028,13.822 9.9266,25.366 l -109.21,5.4996 v -18.205 l 10.247,-7.2925 z"
       opacity="0.39623"
       id="rect3878" />
  </g>
  <metadata
     id="metadata580">
    <rdf:RDF>
      <cc:Work>
        <dc:format>image/svg+xml</dc:format>
        <dc:type
           rdf:resource="http://purl.org/dc/dcmitype/StillImage" />
        <cc:license
           rdf:resource="http://creativecommons.org/licenses/publicdomain/" />
        <dc:publisher>
          <cc:Agent
             rdf:about="http://openclipart.org/">
            <dc:title>Openclipart</dc:title>
          </cc:Agent>
        </dc:publisher>
        <dc:title>Scissors</dc:title>
        <dc:date>2010-04-17T07:56:32</dc:date>
        <dc:description>Scissors, cartoon, clip art, clipart, equipment, office, </dc:description>
        <dc:source>http://openclipart.org/detail/48553/scizors-by-gmad</dc:source>
        <dc:creator>
          <cc:Agent>
            <dc:title>gmad</dc:title>
          </cc:Agent>
        </dc:creator>
        <dc:subject>
          <rdf:Bag>
            <rdf:li>Scissors</rdf:li>
            <rdf:li>cartoon</rdf:li>
            <rdf:li>clip art</rdf:li>
            <rdf:li>clipart</rdf:li>
            <rdf:li>equipment</rdf:li>
            <rdf:li>office</rdf:li>
          </rdf:Bag>
        </dc:subject>
      </cc:Work>
      <cc:License
         rdf:about="http://creativecommons.org/licenses/publicdomain/">
        <cc:permits
           rdf:resource="http://creativecommons.org/ns#Reproduction" />
        <cc:permits
           rdf:resource="http://creativecommons.org/ns#Distribution" />
        <cc:permits
           rdf:resource="http://creativecommons.org/ns#DerivativeWorks" />
      </cc:License>
    </rdf:RDF>
  </metadata>
</svg>
